<svg width="136" height="40" viewBox="0 0 136 40" fill="none" xmlns="http://www.w3.org/2000/svg">
<rect width="134" height="38" rx="6" fill="#FFF9E6"/>
<path d="M30.142 27.062C29.518 27.062 29.206 26.75 29.206 26.126C29.206 25.502 29.518 25.19 30.142 25.19H43.858C44.482 25.19 44.794 25.502 44.794 26.126C44.794 26.75 44.482 27.062 43.858 27.062H37H30.142ZM32.95 24.344C32.602 24.344 32.32 24.236 32.104 24.02C31.888 23.804 31.78 23.522 31.78 23.174V18.638C31.564 18.77 31.24 18.944 30.808 19.16C30.22 19.412 29.746 19.31 29.386 18.854C29.098 18.482 29.002 18.17 29.098 17.918C29.194 17.69 29.47 17.486 29.926 17.306C31.426 16.634 32.734 15.74 33.85 14.624H29.998C29.386 14.624 29.08 14.312 29.08 13.688C29.08 13.076 29.386 12.77 29.998 12.77H35.902V11.798C35.902 11.102 36.25 10.754 36.946 10.754C37.642 10.754 37.99 11.102 37.99 11.798V12.77H44.038C44.65 12.77 44.956 13.076 44.956 13.688C44.956 14.312 44.65 14.624 44.038 14.624H39.988C41.08 15.644 42.406 16.484 43.966 17.144C44.446 17.312 44.74 17.516 44.848 17.756C44.968 18.008 44.878 18.32 44.578 18.692C44.206 19.16 43.714 19.268 43.102 19.016C42.766 18.872 42.43 18.704 42.094 18.512V23.174C42.094 23.522 41.986 23.804 41.77 24.02C41.554 24.236 41.272 24.344 40.924 24.344H36.928H32.95ZM34.3 22.94H36.874H39.43C39.718 22.94 39.862 22.796 39.862 22.508V22.004H33.886V22.526C33.886 22.802 34.024 22.94 34.3 22.94ZM33.886 20.654H36.874H39.862V19.772H33.886V20.654ZM32.23 18.368H37.036H41.842C40.354 17.48 39.07 16.4 37.99 15.128V16.802C37.99 17.498 37.642 17.846 36.946 17.846C36.25 17.846 35.902 17.498 35.902 16.802V15.128C34.858 16.4 33.634 17.48 32.23 18.368ZM51.778 26.972C51.43 26.972 51.148 26.864 50.932 26.648C50.716 26.432 50.608 26.15 50.608 25.802V21.698C50.08 22.238 49.474 22.76 48.79 23.264C48.166 23.66 47.656 23.594 47.26 23.066C46.792 22.442 46.918 21.902 47.638 21.446C48.874 20.558 49.954 19.388 50.878 17.936H47.926C47.362 17.936 47.08 17.654 47.08 17.09C47.08 16.526 47.362 16.244 47.926 16.244H51.778C51.838 16.112 51.928 15.914 52.048 15.65C52.084 15.566 52.108 15.506 52.12 15.47H49.15C48.61 15.47 48.34 15.2 48.34 14.66C48.34 14.12 48.61 13.85 49.15 13.85H52.678C52.774 13.514 52.84 13.256 52.876 13.076C51.268 13.124 50.08 13.142 49.312 13.13C48.784 13.13 48.466 12.896 48.358 12.428C48.214 11.828 48.502 11.528 49.222 11.528C53.902 11.48 57.544 11.264 60.148 10.88C60.352 10.844 60.52 10.868 60.652 10.952C60.76 11.012 60.892 11.138 61.048 11.33C61.324 11.678 61.444 11.942 61.408 12.122C61.372 12.326 61.15 12.458 60.742 12.518C59.278 12.71 57.436 12.866 55.216 12.986C55.168 13.178 55.084 13.466 54.964 13.85H61.138C61.678 13.85 61.948 14.12 61.948 14.66C61.948 15.2 61.678 15.47 61.138 15.47H54.388C54.364 15.554 54.316 15.686 54.244 15.866C54.184 16.034 54.136 16.16 54.1 16.244H62.074C62.638 16.244 62.92 16.526 62.92 17.09C62.92 17.654 62.638 17.936 62.074 17.936H58.114H53.308C53.248 18.056 53.146 18.236 53.002 18.476C52.954 18.56 52.918 18.626 52.894 18.674H60.076C60.424 18.674 60.706 18.782 60.922 18.998C61.138 19.214 61.246 19.496 61.246 19.844V25.802C61.246 26.15 61.138 26.432 60.922 26.648C60.706 26.864 60.424 26.972 60.076 26.972H51.778ZM53.002 25.352H58.672C58.96 25.352 59.104 25.208 59.104 24.92V24.524H55.864H52.642V24.992C52.642 25.232 52.762 25.352 53.002 25.352ZM52.642 23.192H55.864H59.104V22.4H52.642V23.192ZM52.642 21.068H55.864H59.104V20.618C59.104 20.402 58.996 20.294 58.78 20.294H52.642V21.068ZM68.698 27.566C68.026 27.566 67.69 27.23 67.69 26.558V20.294L65.728 20.42C65.128 20.456 64.792 20.174 64.72 19.574C64.648 18.926 64.936 18.59 65.584 18.566L65.908 18.548C66.22 18.2 66.52 17.828 66.808 17.432C66.496 17.012 65.956 16.43 65.188 15.686C65.008 15.53 64.93 15.302 64.954 15.002C64.966 14.75 65.05 14.504 65.206 14.264C65.302 14.12 65.416 14.018 65.548 13.958C65.692 13.886 65.836 13.904 65.98 14.012C66.388 13.328 66.784 12.554 67.168 11.69C67.3 11.366 67.468 11.168 67.672 11.096C67.888 11.012 68.158 11.036 68.482 11.168C69.154 11.444 69.286 11.918 68.878 12.59C68.158 13.754 67.606 14.6 67.222 15.128C67.354 15.26 67.528 15.446 67.744 15.686C67.84 15.782 67.906 15.854 67.942 15.902C68.578 14.966 69.07 14.204 69.418 13.616C69.574 13.328 69.754 13.16 69.958 13.112C70.174 13.064 70.432 13.112 70.732 13.256C71.38 13.568 71.488 14.018 71.056 14.606C69.928 16.142 68.908 17.426 67.996 18.458L70.156 18.35C70.06 18.158 69.982 18.02 69.922 17.936C69.622 17.396 69.748 16.994 70.3 16.73C70.78 16.514 71.164 16.628 71.452 17.072C72.136 18.212 72.634 19.208 72.946 20.06V18.35C72.946 18.002 73.054 17.72 73.27 17.504C73.486 17.288 73.768 17.18 74.116 17.18H78.256V14.192C78.256 13.904 78.112 13.76 77.824 13.76H73.54C72.868 13.76 72.532 13.424 72.532 12.752C72.532 12.08 72.868 11.744 73.54 11.744H76.456H79.228C79.576 11.744 79.858 11.852 80.074 12.068C80.29 12.284 80.398 12.566 80.398 12.914V19.142C80.398 19.85 80.026 20.204 79.282 20.204C78.598 20.204 78.256 19.874 78.256 19.214V19.178H75.502C75.214 19.178 75.07 19.322 75.07 19.61V24.596C75.07 24.98 75.124 25.226 75.232 25.334C75.352 25.43 75.622 25.478 76.042 25.478H78.562C78.958 25.478 79.216 25.298 79.336 24.938C79.396 24.35 79.54 23.888 79.768 23.552C80.044 23.132 80.386 23.012 80.794 23.192C81.058 23.3 81.238 23.564 81.334 23.984C81.406 24.32 81.418 24.68 81.37 25.064C81.202 25.976 80.92 26.606 80.524 26.954C80.14 27.302 79.54 27.476 78.724 27.476H75.772C74.692 27.476 73.954 27.278 73.558 26.882C73.15 26.486 72.946 25.73 72.946 24.614V20.312L72.082 20.726C71.854 20.846 71.644 20.87 71.452 20.798C71.272 20.714 71.14 20.552 71.056 20.312C71.044 20.288 71.026 20.252 71.002 20.204C70.99 20.156 70.978 20.12 70.966 20.096L69.706 20.168V26.558C69.706 27.23 69.37 27.566 68.698 27.566ZM65.998 26C65.806 26.084 65.56 26.048 65.26 25.892C64.936 25.724 64.738 25.55 64.666 25.37C64.594 25.178 64.63 24.92 64.774 24.596C65.014 23.972 65.2 23.222 65.332 22.346C65.428 21.65 65.8 21.356 66.448 21.464C67.06 21.572 67.318 21.932 67.222 22.544C67.126 23.108 67.006 23.66 66.862 24.2C66.754 24.644 66.628 25.052 66.484 25.424C66.352 25.736 66.19 25.928 65.998 26ZM72.046 24.92C71.434 25.172 71.032 24.986 70.84 24.362C70.792 24.194 70.708 23.942 70.588 23.606C70.42 23.15 70.288 22.814 70.192 22.598C69.94 22.058 70.114 21.674 70.714 21.446C71.242 21.254 71.62 21.398 71.848 21.878C72.208 22.718 72.472 23.372 72.64 23.84C72.808 24.344 72.61 24.704 72.046 24.92ZM93.574 27.53C92.89 27.554 92.464 27.308 92.296 26.792C92.068 26.084 92.362 25.742 93.178 25.766C93.346 25.766 93.43 25.682 93.43 25.514V24.272C92.698 24.812 91.798 25.448 90.73 26.18C90.55 26.312 90.358 26.354 90.154 26.306C89.962 26.258 89.8 26.126 89.668 25.91L89.632 25.856C88.24 26.156 86.404 26.534 84.124 26.99C83.812 27.05 83.572 27.02 83.404 26.9C83.248 26.78 83.14 26.552 83.08 26.216C83.02 25.88 83.044 25.622 83.152 25.442C83.26 25.25 83.476 25.13 83.8 25.082C84.376 24.998 84.94 24.908 85.492 24.812V20.114H83.962C83.362 20.114 83.062 19.814 83.062 19.214C83.062 18.614 83.362 18.314 83.962 18.314H85.492V17H84.646C84.43 17 84.256 16.934 84.124 16.802C83.992 16.67 83.926 16.496 83.926 16.28L83.908 16.208C83.692 16.412 83.464 16.382 83.224 16.118C82.972 15.842 82.84 15.536 82.828 15.2C82.816 14.84 82.936 14.534 83.188 14.282C83.944 13.454 84.574 12.53 85.078 11.51C85.174 11.294 85.336 11.12 85.564 10.988C85.792 10.844 86.038 10.772 86.302 10.772H86.59C86.95 10.772 87.274 10.886 87.562 11.114C88.366 11.822 89.056 12.506 89.632 13.166C89.776 13.358 89.842 13.58 89.83 13.832C89.806 14.108 89.704 14.354 89.524 14.57L89.002 15.218H89.038V16.172C89.038 16.424 88.96 16.628 88.804 16.784C88.66 16.928 88.462 17 88.21 17H87.328V18.314H88.642C89.242 18.314 89.542 18.614 89.542 19.214C89.542 19.814 89.242 20.114 88.642 20.114H87.328V24.488C87.892 24.38 88.45 24.272 89.002 24.164C89.386 24.092 89.596 24.248 89.632 24.632V24.686C90.268 24.314 90.976 23.882 91.756 23.39C92.116 23.162 92.44 23.09 92.728 23.174C93.028 23.258 93.256 23.486 93.412 23.858L93.43 23.93V19.124H90.64C90.064 19.124 89.776 18.836 89.776 18.26C89.776 17.684 90.064 17.396 90.64 17.396H92.512H95.266C95.29 17.24 95.326 16.988 95.374 16.64C95.398 16.472 95.416 16.346 95.428 16.262H92.476V16.298C92.428 16.466 92.326 16.598 92.17 16.694C92.026 16.778 91.864 16.808 91.684 16.784C90.784 16.7 90.412 16.34 90.568 15.704C90.88 14.348 91.15 13.01 91.378 11.69C91.474 11.054 91.84 10.766 92.476 10.826C93.184 10.886 93.472 11.252 93.34 11.924V11.96H96.76C97.132 11.96 97.414 12.074 97.606 12.302C97.81 12.518 97.894 12.8 97.858 13.148C97.738 14.156 97.546 15.572 97.282 17.396H98.362C98.938 17.396 99.226 17.684 99.226 18.26C99.226 18.836 98.938 19.124 98.362 19.124H95.446V19.664C95.626 20.42 95.884 21.122 96.22 21.77C96.508 21.374 96.82 20.876 97.156 20.276C97.432 19.736 97.834 19.598 98.362 19.862C98.95 20.15 99.022 20.594 98.578 21.194C98.47 21.35 98.302 21.566 98.074 21.842C98.014 21.914 97.972 21.968 97.948 22.004C97.792 22.184 97.594 22.292 97.354 22.328C97.126 22.364 96.898 22.322 96.67 22.202L96.364 22.022C96.892 23.018 97.558 23.804 98.362 24.38C98.77 24.608 99.022 24.836 99.118 25.064C99.214 25.328 99.13 25.634 98.866 25.982C98.662 26.246 98.44 26.39 98.2 26.414C97.984 26.426 97.72 26.336 97.408 26.144C96.652 25.58 95.998 24.812 95.446 23.84V25.532C95.446 26 95.404 26.354 95.32 26.594C95.212 26.87 95.026 27.08 94.762 27.224C94.438 27.392 94.042 27.494 93.574 27.53ZM84.592 24.074C84.064 24.218 83.776 24.026 83.728 23.498C83.728 23.474 83.722 23.444 83.71 23.408C83.674 23.12 83.638 22.904 83.602 22.76C83.542 22.376 83.482 22.058 83.422 21.806C83.302 21.35 83.476 21.068 83.944 20.96C84.388 20.852 84.664 21.014 84.772 21.446C84.916 22.01 85.042 22.634 85.15 23.318C85.198 23.702 85.012 23.954 84.592 24.074ZM88.984 23.372C88.864 23.732 88.6 23.858 88.192 23.75C87.76 23.618 87.598 23.36 87.706 22.976C87.802 22.628 87.91 22.124 88.03 21.464C88.078 21.176 88.168 20.984 88.3 20.888C88.444 20.792 88.654 20.78 88.93 20.852C89.446 20.972 89.62 21.296 89.452 21.824C89.428 21.908 89.386 22.034 89.326 22.202C89.278 22.37 89.242 22.496 89.218 22.58C89.194 22.688 89.146 22.844 89.074 23.048C89.038 23.192 89.008 23.3 88.984 23.372ZM92.26 22.238C91.684 22.598 91.252 22.484 90.964 21.896C90.94 21.848 90.892 21.776 90.82 21.68C90.796 21.644 90.778 21.614 90.766 21.59C90.718 21.506 90.634 21.386 90.514 21.23C90.466 21.158 90.43 21.104 90.406 21.068C90.034 20.588 90.112 20.186 90.64 19.862C91.048 19.622 91.414 19.676 91.738 20.024L91.756 20.042C92.152 20.546 92.428 20.924 92.584 21.176C92.824 21.596 92.716 21.95 92.26 22.238ZM85.258 15.218H86.716H88.606C88.054 14.354 87.37 13.532 86.554 12.752C86.122 13.508 85.648 14.21 85.132 14.858C84.928 15.098 84.97 15.218 85.258 15.218ZM92.818 14.678H94.222H95.626L95.716 13.958C95.752 13.67 95.626 13.526 95.338 13.526H93.052L92.818 14.678Z" fill="black"/>
<rect x="2" y="2" width="134" height="38" rx="6" fill="#FFCE00"/>
<path d="M32.142 29.062C31.518 29.062 31.206 28.75 31.206 28.126C31.206 27.502 31.518 27.19 32.142 27.19H45.858C46.482 27.19 46.794 27.502 46.794 28.126C46.794 28.75 46.482 29.062 45.858 29.062H39H32.142ZM34.95 26.344C34.602 26.344 34.32 26.236 34.104 26.02C33.888 25.804 33.78 25.522 33.78 25.174V20.638C33.564 20.77 33.24 20.944 32.808 21.16C32.22 21.412 31.746 21.31 31.386 20.854C31.098 20.482 31.002 20.17 31.098 19.918C31.194 19.69 31.47 19.486 31.926 19.306C33.426 18.634 34.734 17.74 35.85 16.624H31.998C31.386 16.624 31.08 16.312 31.08 15.688C31.08 15.076 31.386 14.77 31.998 14.77H37.902V13.798C37.902 13.102 38.25 12.754 38.946 12.754C39.642 12.754 39.99 13.102 39.99 13.798V14.77H46.038C46.65 14.77 46.956 15.076 46.956 15.688C46.956 16.312 46.65 16.624 46.038 16.624H41.988C43.08 17.644 44.406 18.484 45.966 19.144C46.446 19.312 46.74 19.516 46.848 19.756C46.968 20.008 46.878 20.32 46.578 20.692C46.206 21.16 45.714 21.268 45.102 21.016C44.766 20.872 44.43 20.704 44.094 20.512V25.174C44.094 25.522 43.986 25.804 43.77 26.02C43.554 26.236 43.272 26.344 42.924 26.344H38.928H34.95ZM36.3 24.94H38.874H41.43C41.718 24.94 41.862 24.796 41.862 24.508V24.004H35.886V24.526C35.886 24.802 36.024 24.94 36.3 24.94ZM35.886 22.654H38.874H41.862V21.772H35.886V22.654ZM34.23 20.368H39.036H43.842C42.354 19.48 41.07 18.4 39.99 17.128V18.802C39.99 19.498 39.642 19.846 38.946 19.846C38.25 19.846 37.902 19.498 37.902 18.802V17.128C36.858 18.4 35.634 19.48 34.23 20.368ZM53.778 28.972C53.43 28.972 53.148 28.864 52.932 28.648C52.716 28.432 52.608 28.15 52.608 27.802V23.698C52.08 24.238 51.474 24.76 50.79 25.264C50.166 25.66 49.656 25.594 49.26 25.066C48.792 24.442 48.918 23.902 49.638 23.446C50.874 22.558 51.954 21.388 52.878 19.936H49.926C49.362 19.936 49.08 19.654 49.08 19.09C49.08 18.526 49.362 18.244 49.926 18.244H53.778C53.838 18.112 53.928 17.914 54.048 17.65C54.084 17.566 54.108 17.506 54.12 17.47H51.15C50.61 17.47 50.34 17.2 50.34 16.66C50.34 16.12 50.61 15.85 51.15 15.85H54.678C54.774 15.514 54.84 15.256 54.876 15.076C53.268 15.124 52.08 15.142 51.312 15.13C50.784 15.13 50.466 14.896 50.358 14.428C50.214 13.828 50.502 13.528 51.222 13.528C55.902 13.48 59.544 13.264 62.148 12.88C62.352 12.844 62.52 12.868 62.652 12.952C62.76 13.012 62.892 13.138 63.048 13.33C63.324 13.678 63.444 13.942 63.408 14.122C63.372 14.326 63.15 14.458 62.742 14.518C61.278 14.71 59.436 14.866 57.216 14.986C57.168 15.178 57.084 15.466 56.964 15.85H63.138C63.678 15.85 63.948 16.12 63.948 16.66C63.948 17.2 63.678 17.47 63.138 17.47H56.388C56.364 17.554 56.316 17.686 56.244 17.866C56.184 18.034 56.136 18.16 56.1 18.244H64.074C64.638 18.244 64.92 18.526 64.92 19.09C64.92 19.654 64.638 19.936 64.074 19.936H60.114H55.308C55.248 20.056 55.146 20.236 55.002 20.476C54.954 20.56 54.918 20.626 54.894 20.674H62.076C62.424 20.674 62.706 20.782 62.922 20.998C63.138 21.214 63.246 21.496 63.246 21.844V27.802C63.246 28.15 63.138 28.432 62.922 28.648C62.706 28.864 62.424 28.972 62.076 28.972H53.778ZM55.002 27.352H60.672C60.96 27.352 61.104 27.208 61.104 26.92V26.524H57.864H54.642V26.992C54.642 27.232 54.762 27.352 55.002 27.352ZM54.642 25.192H57.864H61.104V24.4H54.642V25.192ZM54.642 23.068H57.864H61.104V22.618C61.104 22.402 60.996 22.294 60.78 22.294H54.642V23.068ZM70.698 29.566C70.026 29.566 69.69 29.23 69.69 28.558V22.294L67.728 22.42C67.128 22.456 66.792 22.174 66.72 21.574C66.648 20.926 66.936 20.59 67.584 20.566L67.908 20.548C68.22 20.2 68.52 19.828 68.808 19.432C68.496 19.012 67.956 18.43 67.188 17.686C67.008 17.53 66.93 17.302 66.954 17.002C66.966 16.75 67.05 16.504 67.206 16.264C67.302 16.12 67.416 16.018 67.548 15.958C67.692 15.886 67.836 15.904 67.98 16.012C68.388 15.328 68.784 14.554 69.168 13.69C69.3 13.366 69.468 13.168 69.672 13.096C69.888 13.012 70.158 13.036 70.482 13.168C71.154 13.444 71.286 13.918 70.878 14.59C70.158 15.754 69.606 16.6 69.222 17.128C69.354 17.26 69.528 17.446 69.744 17.686C69.84 17.782 69.906 17.854 69.942 17.902C70.578 16.966 71.07 16.204 71.418 15.616C71.574 15.328 71.754 15.16 71.958 15.112C72.174 15.064 72.432 15.112 72.732 15.256C73.38 15.568 73.488 16.018 73.056 16.606C71.928 18.142 70.908 19.426 69.996 20.458L72.156 20.35C72.06 20.158 71.982 20.02 71.922 19.936C71.622 19.396 71.748 18.994 72.3 18.73C72.78 18.514 73.164 18.628 73.452 19.072C74.136 20.212 74.634 21.208 74.946 22.06V20.35C74.946 20.002 75.054 19.72 75.27 19.504C75.486 19.288 75.768 19.18 76.116 19.18H80.256V16.192C80.256 15.904 80.112 15.76 79.824 15.76H75.54C74.868 15.76 74.532 15.424 74.532 14.752C74.532 14.08 74.868 13.744 75.54 13.744H78.456H81.228C81.576 13.744 81.858 13.852 82.074 14.068C82.29 14.284 82.398 14.566 82.398 14.914V21.142C82.398 21.85 82.026 22.204 81.282 22.204C80.598 22.204 80.256 21.874 80.256 21.214V21.178H77.502C77.214 21.178 77.07 21.322 77.07 21.61V26.596C77.07 26.98 77.124 27.226 77.232 27.334C77.352 27.43 77.622 27.478 78.042 27.478H80.562C80.958 27.478 81.216 27.298 81.336 26.938C81.396 26.35 81.54 25.888 81.768 25.552C82.044 25.132 82.386 25.012 82.794 25.192C83.058 25.3 83.238 25.564 83.334 25.984C83.406 26.32 83.418 26.68 83.37 27.064C83.202 27.976 82.92 28.606 82.524 28.954C82.14 29.302 81.54 29.476 80.724 29.476H77.772C76.692 29.476 75.954 29.278 75.558 28.882C75.15 28.486 74.946 27.73 74.946 26.614V22.312L74.082 22.726C73.854 22.846 73.644 22.87 73.452 22.798C73.272 22.714 73.14 22.552 73.056 22.312C73.044 22.288 73.026 22.252 73.002 22.204C72.99 22.156 72.978 22.12 72.966 22.096L71.706 22.168V28.558C71.706 29.23 71.37 29.566 70.698 29.566ZM67.998 28C67.806 28.084 67.56 28.048 67.26 27.892C66.936 27.724 66.738 27.55 66.666 27.37C66.594 27.178 66.63 26.92 66.774 26.596C67.014 25.972 67.2 25.222 67.332 24.346C67.428 23.65 67.8 23.356 68.448 23.464C69.06 23.572 69.318 23.932 69.222 24.544C69.126 25.108 69.006 25.66 68.862 26.2C68.754 26.644 68.628 27.052 68.484 27.424C68.352 27.736 68.19 27.928 67.998 28ZM74.046 26.92C73.434 27.172 73.032 26.986 72.84 26.362C72.792 26.194 72.708 25.942 72.588 25.606C72.42 25.15 72.288 24.814 72.192 24.598C71.94 24.058 72.114 23.674 72.714 23.446C73.242 23.254 73.62 23.398 73.848 23.878C74.208 24.718 74.472 25.372 74.64 25.84C74.808 26.344 74.61 26.704 74.046 26.92ZM95.574 29.53C94.89 29.554 94.464 29.308 94.296 28.792C94.068 28.084 94.362 27.742 95.178 27.766C95.346 27.766 95.43 27.682 95.43 27.514V26.272C94.698 26.812 93.798 27.448 92.73 28.18C92.55 28.312 92.358 28.354 92.154 28.306C91.962 28.258 91.8 28.126 91.668 27.91L91.632 27.856C90.24 28.156 88.404 28.534 86.124 28.99C85.812 29.05 85.572 29.02 85.404 28.9C85.248 28.78 85.14 28.552 85.08 28.216C85.02 27.88 85.044 27.622 85.152 27.442C85.26 27.25 85.476 27.13 85.8 27.082C86.376 26.998 86.94 26.908 87.492 26.812V22.114H85.962C85.362 22.114 85.062 21.814 85.062 21.214C85.062 20.614 85.362 20.314 85.962 20.314H87.492V19H86.646C86.43 19 86.256 18.934 86.124 18.802C85.992 18.67 85.926 18.496 85.926 18.28L85.908 18.208C85.692 18.412 85.464 18.382 85.224 18.118C84.972 17.842 84.84 17.536 84.828 17.2C84.816 16.84 84.936 16.534 85.188 16.282C85.944 15.454 86.574 14.53 87.078 13.51C87.174 13.294 87.336 13.12 87.564 12.988C87.792 12.844 88.038 12.772 88.302 12.772H88.59C88.95 12.772 89.274 12.886 89.562 13.114C90.366 13.822 91.056 14.506 91.632 15.166C91.776 15.358 91.842 15.58 91.83 15.832C91.806 16.108 91.704 16.354 91.524 16.57L91.002 17.218H91.038V18.172C91.038 18.424 90.96 18.628 90.804 18.784C90.66 18.928 90.462 19 90.21 19H89.328V20.314H90.642C91.242 20.314 91.542 20.614 91.542 21.214C91.542 21.814 91.242 22.114 90.642 22.114H89.328V26.488C89.892 26.38 90.45 26.272 91.002 26.164C91.386 26.092 91.596 26.248 91.632 26.632V26.686C92.268 26.314 92.976 25.882 93.756 25.39C94.116 25.162 94.44 25.09 94.728 25.174C95.028 25.258 95.256 25.486 95.412 25.858L95.43 25.93V21.124H92.64C92.064 21.124 91.776 20.836 91.776 20.26C91.776 19.684 92.064 19.396 92.64 19.396H94.512H97.266C97.29 19.24 97.326 18.988 97.374 18.64C97.398 18.472 97.416 18.346 97.428 18.262H94.476V18.298C94.428 18.466 94.326 18.598 94.17 18.694C94.026 18.778 93.864 18.808 93.684 18.784C92.784 18.7 92.412 18.34 92.568 17.704C92.88 16.348 93.15 15.01 93.378 13.69C93.474 13.054 93.84 12.766 94.476 12.826C95.184 12.886 95.472 13.252 95.34 13.924V13.96H98.76C99.132 13.96 99.414 14.074 99.606 14.302C99.81 14.518 99.894 14.8 99.858 15.148C99.738 16.156 99.546 17.572 99.282 19.396H100.362C100.938 19.396 101.226 19.684 101.226 20.26C101.226 20.836 100.938 21.124 100.362 21.124H97.446V21.664C97.626 22.42 97.884 23.122 98.22 23.77C98.508 23.374 98.82 22.876 99.156 22.276C99.432 21.736 99.834 21.598 100.362 21.862C100.95 22.15 101.022 22.594 100.578 23.194C100.47 23.35 100.302 23.566 100.074 23.842C100.014 23.914 99.972 23.968 99.948 24.004C99.792 24.184 99.594 24.292 99.354 24.328C99.126 24.364 98.898 24.322 98.67 24.202L98.364 24.022C98.892 25.018 99.558 25.804 100.362 26.38C100.77 26.608 101.022 26.836 101.118 27.064C101.214 27.328 101.13 27.634 100.866 27.982C100.662 28.246 100.44 28.39 100.2 28.414C99.984 28.426 99.72 28.336 99.408 28.144C98.652 27.58 97.998 26.812 97.446 25.84V27.532C97.446 28 97.404 28.354 97.32 28.594C97.212 28.87 97.026 29.08 96.762 29.224C96.438 29.392 96.042 29.494 95.574 29.53ZM86.592 26.074C86.064 26.218 85.776 26.026 85.728 25.498C85.728 25.474 85.722 25.444 85.71 25.408C85.674 25.12 85.638 24.904 85.602 24.76C85.542 24.376 85.482 24.058 85.422 23.806C85.302 23.35 85.476 23.068 85.944 22.96C86.388 22.852 86.664 23.014 86.772 23.446C86.916 24.01 87.042 24.634 87.15 25.318C87.198 25.702 87.012 25.954 86.592 26.074ZM90.984 25.372C90.864 25.732 90.6 25.858 90.192 25.75C89.76 25.618 89.598 25.36 89.706 24.976C89.802 24.628 89.91 24.124 90.03 23.464C90.078 23.176 90.168 22.984 90.3 22.888C90.444 22.792 90.654 22.78 90.93 22.852C91.446 22.972 91.62 23.296 91.452 23.824C91.428 23.908 91.386 24.034 91.326 24.202C91.278 24.37 91.242 24.496 91.218 24.58C91.194 24.688 91.146 24.844 91.074 25.048C91.038 25.192 91.008 25.3 90.984 25.372ZM94.26 24.238C93.684 24.598 93.252 24.484 92.964 23.896C92.94 23.848 92.892 23.776 92.82 23.68C92.796 23.644 92.778 23.614 92.766 23.59C92.718 23.506 92.634 23.386 92.514 23.23C92.466 23.158 92.43 23.104 92.406 23.068C92.034 22.588 92.112 22.186 92.64 21.862C93.048 21.622 93.414 21.676 93.738 22.024L93.756 22.042C94.152 22.546 94.428 22.924 94.584 23.176C94.824 23.596 94.716 23.95 94.26 24.238ZM87.258 17.218H88.716H90.606C90.054 16.354 89.37 15.532 88.554 14.752C88.122 15.508 87.648 16.21 87.132 16.858C86.928 17.098 86.97 17.218 87.258 17.218ZM94.818 16.678H96.222H97.626L97.716 15.958C97.752 15.67 97.626 15.526 97.338 15.526H95.052L94.818 16.678Z" fill="black"/>
</svg>
