<svg width="96" height="40" viewBox="0 0 96 40" fill="none" xmlns="http://www.w3.org/2000/svg">
<rect width="96" height="40" rx="6" fill="#FFF9E6"/>
<rect x="2" y="2" width="94" height="38" rx="6" fill="#FFCE00"/>
<path d="M42.438 29.422C41.394 29.422 40.692 29.236 40.332 28.864C39.996 28.516 39.828 27.838 39.828 26.83V23.77H37.938C37.722 25.15 37.308 26.23 36.696 27.01C35.964 27.946 34.806 28.672 33.222 29.188C32.826 29.296 32.46 29.332 32.124 29.296C31.704 29.26 31.416 29.11 31.26 28.846C31.02 28.45 31.098 28.09 31.494 27.766C31.818 27.502 32.274 27.292 32.862 27.136C33.81 26.788 34.5 26.32 34.932 25.732C35.28 25.264 35.532 24.61 35.688 23.77H34.464C34.128 23.77 33.858 23.674 33.654 23.482C33.462 23.278 33.366 23.008 33.366 22.672V18.946C33.342 18.958 33.306 18.982 33.258 19.018C33.222 19.054 33.192 19.084 33.168 19.108C32.58 19.552 32.046 19.528 31.566 19.036C31.242 18.7 31.104 18.394 31.152 18.118C31.212 17.842 31.446 17.572 31.854 17.308C32.85 16.552 33.672 15.7 34.32 14.752C34.668 14.176 35.154 13.996 35.778 14.212C36.57 14.464 36.75 14.95 36.318 15.67C35.874 16.33 35.37 16.96 34.806 17.56H39.054H43.302C42.522 16.732 41.88 15.916 41.376 15.112H38.28C37.632 15.112 37.308 14.788 37.308 14.14C37.308 13.492 37.632 13.168 38.28 13.168H41.844C42.108 13.168 42.348 13.234 42.564 13.366C42.792 13.498 42.96 13.666 43.068 13.87C43.86 15.154 44.892 16.258 46.164 17.182C46.608 17.458 46.866 17.728 46.938 17.992C47.01 18.28 46.872 18.598 46.524 18.946C46.272 19.21 46.014 19.342 45.75 19.342C45.498 19.354 45.216 19.246 44.904 19.018C44.88 18.982 44.832 18.94 44.76 18.892V22.6C44.76 22.948 44.652 23.23 44.436 23.446C44.22 23.662 43.938 23.77 43.59 23.77H41.988V26.812C41.988 27.088 42.03 27.268 42.114 27.352C42.21 27.424 42.42 27.46 42.744 27.46H44.598C44.838 27.46 45.006 27.376 45.102 27.208C45.162 26.668 45.3 26.248 45.516 25.948C45.78 25.588 46.116 25.492 46.524 25.66C46.788 25.768 46.968 26.032 47.064 26.452C47.136 26.788 47.142 27.148 47.082 27.532C46.926 28.252 46.674 28.75 46.326 29.026C46.002 29.29 45.492 29.422 44.796 29.422H42.438ZM35.868 21.862H42.15C42.438 21.862 42.582 21.718 42.582 21.43V19.468H39H35.436V21.43C35.436 21.718 35.58 21.862 35.868 21.862ZM64.794 28.846C64.506 29.302 63.96 29.494 63.156 29.422C61.656 29.254 60.432 28.954 59.484 28.522C58.512 28.09 57.708 27.472 57.072 26.668C56.1 27.976 54.054 28.894 50.934 29.422C50.598 29.47 50.286 29.458 49.998 29.386C49.638 29.314 49.386 29.17 49.242 28.954C49.002 28.594 49.044 28.276 49.368 28C49.644 27.772 50.052 27.616 50.592 27.532C52.656 27.136 54.09 26.596 54.894 25.912H49.836C49.248 25.912 48.954 25.618 48.954 25.03C48.954 24.442 49.248 24.148 49.836 24.148H52.374H55.812V24.04V23.518C55.812 22.822 56.16 22.474 56.856 22.474C57.552 22.474 57.9 22.822 57.9 23.518V24.094V24.148H61.032C60.924 24.112 60.756 24.058 60.528 23.986C60.3 23.902 60.132 23.842 60.024 23.806C59.772 23.734 59.616 23.608 59.556 23.428C59.496 23.236 59.544 23.026 59.7 22.798L59.844 22.6H59.664C59.616 22.6 59.586 22.576 59.574 22.528C59.514 22.24 59.394 21.868 59.214 21.412L58.89 21.61C58.134 22.042 57.474 21.922 56.91 21.25C56.67 20.974 56.568 20.71 56.604 20.458C56.64 20.206 56.82 19.99 57.144 19.81L57.18 19.792H55.848C55.356 19.792 55.11 19.54 55.11 19.036C55.11 18.544 55.356 18.298 55.848 18.298H55.956C55.884 18.118 55.758 17.884 55.578 17.596C55.458 17.44 55.422 17.308 55.47 17.2C55.518 17.092 55.644 17.026 55.848 17.002C56.568 16.906 57.102 16.822 57.45 16.75C57.162 16.462 56.814 16.162 56.406 15.85C56.358 15.862 56.286 15.886 56.19 15.922C56.07 15.946 55.986 15.97 55.938 15.994C55.686 16.066 55.488 16 55.344 15.796C55.092 15.412 54.828 15.112 54.552 14.896V22.096C54.552 22.732 54.234 23.05 53.598 23.05C52.95 23.05 52.626 22.732 52.626 22.096V19.756H51.636V19.864C51.636 21.016 51.36 21.994 50.808 22.798C50.412 23.242 50.004 23.344 49.584 23.104C49.26 22.924 49.098 22.678 49.098 22.366C49.086 22.078 49.206 21.766 49.458 21.43C49.674 20.926 49.782 20.38 49.782 19.792V19.756H49.548C48.996 19.756 48.72 19.474 48.72 18.91C48.72 18.358 48.996 18.082 49.548 18.082H52.626V17.128H50.7C50.352 17.128 50.07 17.02 49.854 16.804C49.638 16.588 49.53 16.306 49.53 15.958V14.122C49.53 13.534 49.824 13.24 50.412 13.24C51 13.24 51.294 13.534 51.294 14.122V15.076C51.294 15.364 51.438 15.508 51.726 15.508H52.626V13.708C52.626 13.072 52.95 12.754 53.598 12.754C54.234 12.754 54.552 13.072 54.552 13.708V14.842C56.712 14.422 58.344 13.804 59.448 12.988C59.64 12.832 59.988 12.808 60.492 12.916C60.732 12.964 60.906 13.048 61.014 13.168C61.146 13.3 61.122 13.444 60.942 13.6H63.21C63.654 13.6 63.936 13.726 64.056 13.978C64.176 14.218 64.11 14.56 63.858 15.004C63.186 15.904 62.238 16.618 61.014 17.146H62.076C62.364 17.146 62.592 17.23 62.76 17.398C62.928 17.566 63.012 17.794 63.012 18.082V18.298H64.596C65.088 18.298 65.334 18.544 65.334 19.036C65.334 19.54 65.088 19.792 64.596 19.792H63.012V20.872C63.012 21.304 62.958 21.628 62.85 21.844C62.73 22.072 62.514 22.246 62.202 22.366C61.902 22.474 61.482 22.546 60.942 22.582C61.734 22.798 62.448 23.026 63.084 23.266C63.228 23.326 63.318 23.434 63.354 23.59C63.402 23.746 63.372 23.914 63.264 24.094L63.228 24.148H64.182C64.77 24.148 65.064 24.442 65.064 25.03C65.064 25.618 64.77 25.912 64.182 25.912H59.052C59.916 26.728 61.362 27.244 63.39 27.46C64.026 27.496 64.476 27.616 64.74 27.82C65.052 28.06 65.07 28.402 64.794 28.846ZM60.69 21.052C60.894 21.052 60.996 20.968 60.996 20.8V19.792H59.43H57.882C58.35 20.2 58.74 20.614 59.052 21.034C59.472 21.046 60.018 21.052 60.69 21.052ZM56.64 18.298H58.818H60.996V17.146C59.808 17.662 58.356 18.046 56.64 18.298ZM58.782 16.426C59.046 16.354 59.346 16.252 59.682 16.12C59.526 15.976 59.316 15.814 59.052 15.634C59.028 15.622 58.998 15.598 58.962 15.562C58.674 15.37 58.458 15.232 58.314 15.148C58.026 15.268 57.798 15.358 57.63 15.418C58.146 15.814 58.53 16.15 58.782 16.426ZM60.798 15.634C60.966 15.55 61.194 15.412 61.482 15.22C61.674 15.088 61.872 14.932 62.076 14.752H59.574C59.982 14.992 60.39 15.286 60.798 15.634Z" fill="black"/>
</svg>
