<svg width="78" height="78" viewBox="0 0 78 78" fill="none" xmlns="http://www.w3.org/2000/svg">
<rect x="0.5" y="0.5" width="76.3009" height="76.3009" rx="14.5" fill="#349054" stroke="#CBD1CB"/>
<path d="M39.0002 17.925C27.3807 17.925 17.9252 27.3806 17.9252 39.0001C17.9252 50.6196 27.3807 60.0751 39.0002 60.0751C50.6197 60.0751 60.0752 50.6196 60.0752 39.0001C60.0752 27.3806 50.6197 17.925 39.0002 17.925ZM50.3629 32.7135L36.1907 53.1503L26.3831 42.4478C25.6055 41.6042 25.6642 40.2838 26.5078 39.5135C27.3587 38.736 28.6717 38.7947 29.4493 39.6383L35.7432 46.5043L46.9446 30.3515C47.5974 29.4052 48.8958 29.1704 49.8348 29.8306C50.7811 30.4762 51.0158 31.7746 50.3629 32.7135Z" fill="#ACE176" fill-opacity="0.6"/>
<path d="M68.005 41.3255C70.6604 40.9147 70.6604 37.0855 68.005 36.6748C65.7456 36.3226 65.2615 33.2784 67.3008 32.2514C69.6995 31.0411 68.5185 27.3953 65.863 27.8281C63.6036 28.1949 62.2026 25.444 63.831 23.8376C65.7383 21.945 63.4863 18.842 61.0949 20.0744C59.0629 21.1234 56.877 18.9374 57.9259 16.9055C59.1583 14.5141 56.0554 12.2621 54.1628 14.1693C52.549 15.7905 49.8055 14.3967 50.1723 12.1374C50.6051 9.4819 46.9593 8.30087 45.7489 10.6996C44.7146 12.7389 41.6704 12.2621 41.3256 9.99538C40.9148 7.33992 37.0857 7.33992 36.6749 9.99538C36.3228 12.2547 33.2785 12.7389 32.2515 10.6996C31.0412 8.30087 27.3954 9.4819 27.8282 12.1374C28.195 14.3967 25.4442 15.7978 23.8377 14.1693C21.9451 12.2621 18.8422 14.5141 20.0745 16.9055C21.1235 18.9374 18.9375 21.1234 16.9056 20.0744C14.5069 18.842 12.2549 21.9376 14.1694 23.8302C15.7906 25.444 14.3968 28.1875 12.1375 27.8208C9.48202 27.388 8.301 31.0337 10.6997 32.2441C12.739 33.2784 12.2622 36.3226 9.99551 36.6674C7.34004 37.0782 7.34004 40.9074 9.99551 41.3181C12.2549 41.6703 12.739 44.7145 10.6997 45.7415C8.301 46.9518 9.48202 50.5976 12.1375 50.1648C14.3968 49.798 15.7979 52.5489 14.1694 54.1553C12.2622 56.0479 14.5142 59.1509 16.9056 57.9185C18.9375 56.8695 21.1235 59.0555 20.0745 61.0874C18.8422 63.4788 21.9451 65.7308 23.8377 63.8236C25.4515 62.2024 28.195 63.5962 27.8282 65.8555C27.3954 68.511 31.0412 69.692 32.2515 67.2933C33.2859 65.2467 36.3301 65.7308 36.6749 67.9975C37.0857 70.653 40.9148 70.653 41.3256 67.9975C41.6777 65.7382 44.722 65.254 45.7489 67.2933C46.9593 69.692 50.6051 68.511 50.1723 65.8555C49.8055 63.5962 52.5563 62.1951 54.1628 63.8236C56.0554 65.7308 59.1583 63.4788 57.9259 61.0874C56.877 59.0555 59.0629 56.8695 61.0949 57.9185C63.4863 59.1509 65.7383 56.0479 63.831 54.1553C62.2099 52.5415 63.6036 49.798 65.863 50.1648C68.5185 50.5976 69.6995 46.9518 67.3008 45.7415C65.2615 44.7218 65.7456 41.6703 68.005 41.3255ZM39.0002 62.1511C26.2364 62.1511 15.8493 51.764 15.8493 39.0001C15.8493 26.2363 26.2364 15.8491 39.0002 15.8491C51.7641 15.8491 62.1512 26.2363 62.1512 39.0001C62.1512 51.764 51.7641 62.1511 39.0002 62.1511Z" fill="#ACE176" fill-opacity="0.6"/>
</svg>
