<svg width="78" height="78" viewBox="0 0 78 78" fill="none" xmlns="http://www.w3.org/2000/svg">
<rect x="0.5" y="0.5" width="76.3009" height="76.3009" rx="14.5" fill="#E7BB00" stroke="white"/>
<path d="M38.9963 17.9213C27.3768 17.9213 17.9213 27.3768 17.9213 38.9963C17.9213 50.6158 27.3768 60.0713 38.9963 60.0713C50.6158 60.0713 60.0713 50.6158 60.0713 38.9963C60.0713 27.3768 50.6158 17.9213 38.9963 17.9213ZM50.359 32.7097L36.1868 53.1465L26.3791 42.444C25.6016 41.6004 25.6603 40.28 26.5038 39.5098C27.3548 38.7322 28.6678 38.7909 29.4454 39.6345L35.7393 46.5005L46.9407 30.3477C47.5935 29.4014 48.8919 29.1666 49.8309 29.8268C50.7772 30.4724 51.0119 31.7708 50.359 32.7097Z" fill="#D66F43" fill-opacity="0.6"/>
<path d="M68.0011 41.3217C70.6565 40.9109 70.6565 37.0818 68.0011 36.671C65.7417 36.3189 65.2576 33.2746 67.2969 32.2476C69.6956 31.0373 68.5146 27.3915 65.8591 27.8243C63.5997 28.1911 62.1987 25.4403 63.8271 23.8338C65.7344 21.9412 63.4824 18.8383 61.091 20.0706C59.059 21.1196 56.873 18.9336 57.922 16.9017C59.1544 14.5103 56.0515 12.2583 54.1589 14.1655C52.5451 15.7867 49.8016 14.3929 50.1684 12.1336C50.6012 9.47811 46.9554 8.29709 45.745 10.6958C44.7107 12.7351 41.6665 12.2583 41.3217 9.9916C40.9109 7.33613 37.0818 7.33613 36.671 9.9916C36.3189 12.2509 33.2746 12.7351 32.2476 10.6958C31.0373 8.29709 27.3915 9.47811 27.8243 12.1336C28.1911 14.3929 25.4403 15.794 23.8338 14.1655C21.9412 12.2583 18.8383 14.5103 20.0706 16.9017C21.1196 18.9336 18.9336 21.1196 16.9017 20.0706C14.503 18.8383 12.2509 21.9339 14.1655 23.8264C15.7867 25.4403 14.3929 28.1837 12.1336 27.817C9.47811 27.3842 8.29709 31.0299 10.6958 32.2403C12.7351 33.2746 12.2583 36.3189 9.9916 36.6636C7.33613 37.0744 7.33613 40.9036 9.9916 41.3144C12.2509 41.6665 12.7351 44.7107 10.6958 45.7377C8.29709 46.9481 9.47811 50.5938 12.1336 50.161C14.3929 49.7943 15.794 52.5451 14.1655 54.1516C12.2583 56.0441 14.5103 59.1471 16.9017 57.9147C18.9336 56.8657 21.1196 59.0517 20.0706 61.0837C18.8383 63.475 21.9412 65.7271 23.8338 63.8198C25.4476 62.1987 28.1911 63.5924 27.8243 65.8518C27.3915 68.5072 31.0373 69.6882 32.2476 67.2895C33.2819 65.2429 36.3262 65.7271 36.671 67.9937C37.0818 70.6492 40.9109 70.6492 41.3217 67.9937C41.6738 65.7344 44.7181 65.2502 45.745 67.2895C46.9554 69.6882 50.6012 68.5072 50.1684 65.8518C49.8016 63.5924 52.5524 62.1913 54.1589 63.8198C56.0515 65.7271 59.1544 63.475 57.922 61.0837C56.873 59.0517 59.059 56.8657 61.091 57.9147C63.4824 59.1471 65.7344 56.0441 63.8271 54.1516C62.206 52.5377 63.5997 49.7943 65.8591 50.161C68.5146 50.5938 69.6956 46.9481 67.2969 45.7377C65.2576 44.7181 65.7417 41.6665 68.0011 41.3217ZM38.9963 62.1473C26.2325 62.1473 15.8454 51.7602 15.8454 38.9963C15.8454 26.2325 26.2325 15.8454 38.9963 15.8454C51.7602 15.8454 62.1473 26.2325 62.1473 38.9963C62.1473 51.7602 51.7602 62.1473 38.9963 62.1473Z" fill="#D66F43" fill-opacity="0.6"/>
</svg>
