<svg width="84" height="84" viewBox="0 0 84 84" fill="none" xmlns="http://www.w3.org/2000/svg">
<g clip-path="url(#clip0_142_109)">
<path d="M75.0425 84H8.9575C4.01 84 0 79.99 0 75.0425V8.9575C0 4.01 4.01 0 8.9575 0H75.0425C79.99 0 84 4.01 84 8.9575V75.0425C84 79.99 79.99 84 75.0425 84Z" fill="white"/>
<path d="M52.7352 56.9025C53.5777 56.9025 54.2602 57.5925 54.2602 58.435C54.2602 59.2775 53.5802 59.9725 52.7352 59.9725C51.8977 59.9725 51.2227 59.28 51.2227 58.435C51.2227 57.59 51.8952 56.9025 52.7352 56.9025ZM52.7352 59.6675C53.4002 59.6675 53.9227 59.1325 53.9227 58.435C53.9227 57.7375 53.4002 57.205 52.7352 57.205C52.0702 57.205 51.5477 57.7375 51.5477 58.435C51.5477 59.1325 52.0702 59.6675 52.7352 59.6675ZM52.5452 59.255H52.2302V57.585H52.8077C53.1327 57.585 53.3727 57.8125 53.3727 58.1075C53.3727 58.34 53.2227 58.53 53.0077 58.6025L53.3802 59.255H53.0202L52.6702 58.6325H52.5452V59.255ZM52.7602 58.36C52.9477 58.36 53.0502 58.2675 53.0502 58.115C53.0502 57.9525 52.9452 57.8625 52.7602 57.8625H52.5452V58.36H52.7602Z" fill="#007350"/>
<path d="M60.0875 45.245C59.2675 45.245 58.6925 45.64 58.17 46.075L57.7925 46.615L57.655 46.52L58.115 45.745V45.26H55.1875V54.9475H57.845V48.8C57.845 47.805 58.515 47.485 58.9725 47.4275C59.41 47.3725 59.97 47.615 59.97 48.1575V54.9475H62.6275V48.27C62.6275 46.205 61.6925 45.245 60.0875 45.245Z" fill="#007350"/>
<path d="M30.4027 52.865H33.1952V54.9475H27.7427V45.26H30.4027V52.865Z" fill="#007350"/>
<path d="M21.3601 54.9475H26.8126V53.045H24.0201V50.875H26.8126V49.06H24.0201V47.2375H26.8126V45.26H21.3601V54.9475Z" fill="#007350"/>
<path d="M34.125 54.9475H39.5775V53.045H36.7825V50.875H39.5775V49.06H36.7825V47.2375H39.5775V45.26H34.125V54.9475Z" fill="#007350"/>
<path d="M48.8052 54.9475H54.2602V53.045H51.4652V50.875H54.2602V49.06H51.4652V47.2375H54.2602V45.26H48.8052V54.9475Z" fill="#007350"/>
<path d="M45.3502 45.26V45.2625L44.3227 51.4025L44.2477 52.46L44.2402 52.5575H44.1427L44.1352 52.46L44.0602 51.4025L43.0352 45.2625V45.26H40.3577L42.5652 54.9475H45.8202L48.0252 45.26H45.3502Z" fill="#007350"/>
<path d="M55.9926 15.6075H21.3601V29.35H39.6351C43.7126 23.4025 49.3651 18.62 55.9926 15.6075Z" fill="#FF6C00"/>
<path d="M35.1226 70.555H48.8626L48.8776 56.82H35.1476L35.1226 70.555Z" fill="#EC0F2A"/>
<path d="M62.6327 29.38V15.585C49.5102 19.1925 39.2702 29.7575 36.1277 43.065H50.1902C52.3052 36.9875 56.8352 32.0425 62.6327 29.38Z" fill="#EC0F2A"/>
</g>
<defs>
<clipPath id="clip0_142_109">
<rect width="84" height="84" fill="white"/>
</clipPath>
</defs>
</svg>
