<svg width="68" height="64" viewBox="0 0 68 64" fill="none" xmlns="http://www.w3.org/2000/svg">
<rect x="16.363" width="54" height="31" rx="15.5" transform="rotate(20.2393 16.363 0)" fill="#FF4752"/>
<path d="M16.0543 49.9792L26.8739 32.6704L38.1686 37.0783L16.0543 49.9792Z" fill="#FF4752"/>
<path d="M27.5266 28.7572C26.7386 28.4894 26.3473 28.0552 26.3528 27.4547C26.364 26.5607 26.9178 26.3386 28.0139 26.7882C28.2441 26.8731 28.4693 26.9561 28.6894 27.0373C28.9596 27.1369 29.1409 27.0616 29.2331 26.8114L32.449 18.0894L29.5817 17.0322C28.9912 16.8145 28.8067 16.4054 29.0281 15.8049C29.2458 15.2144 29.6499 15.0281 30.2404 15.2458L33.3629 16.3971L36.5004 17.5539C37.0909 17.7716 37.2773 18.1757 37.0596 18.7662C36.8382 19.3667 36.4322 19.558 35.8417 19.3403L34.3706 18.7979L31.1436 27.5499C30.948 28.0804 30.7285 28.4599 30.4851 28.6884C30.248 28.9307 29.9298 29.0692 29.5305 29.1038C29.0463 29.1527 28.3784 29.0372 27.5266 28.7572ZM20.7633 26.1953C20.0954 25.9718 19.7731 25.5972 19.7964 25.0714C19.8361 24.3471 20.2726 24.1499 21.1059 24.4799C21.1559 24.4984 21.206 24.5168 21.256 24.5353C21.4462 24.6054 21.5781 24.5404 21.6519 24.3402L22.7479 21.3678L21.9759 21.2878C21.3301 21.2202 21.0323 20.8717 21.0825 20.2422C21.1168 19.9024 21.2104 19.664 21.3632 19.5271C21.5297 19.3839 21.781 19.3344 22.117 19.3788C22.3019 19.4014 22.5861 19.4323 22.9696 19.4714C23.1782 19.4915 23.3313 19.5081 23.4287 19.5213L24.3807 16.9392L23.3149 16.5462C22.7544 16.3396 22.5775 15.9561 22.7842 15.3956C22.9908 14.8352 23.3744 14.6582 23.9348 14.8649L25.0007 15.2579L25.7147 13.3213C25.9361 12.7208 26.347 12.5313 26.9475 12.7527C27.548 12.9741 27.7375 13.385 27.5161 13.9855L26.8021 15.9221L27.6428 16.2321C28.2032 16.4387 28.3801 16.8222 28.1735 17.3827C27.9669 17.9431 27.5833 18.12 27.0229 17.9134L26.1822 17.6034L25.3907 19.7502L26.2788 19.8389C26.9347 19.9102 27.185 20.264 27.03 20.9003C26.9182 21.4502 26.5812 21.7012 26.0192 21.6531C25.592 21.6093 25.1629 21.5704 24.732 21.5366L24.0899 23.278L23.4479 25.0194C23.2818 25.4698 23.1045 25.7966 22.9158 25.9999C22.7235 26.2132 22.4782 26.3388 22.1801 26.3766C21.8071 26.4324 21.3348 26.3719 20.7633 26.1953ZM41.1694 33.8897C40.5389 33.6573 40.3399 33.2258 40.5724 32.5953L42.7864 26.5904L38.2378 24.9133C37.6473 24.6956 37.4609 24.2915 37.6786 23.701C37.8963 23.1106 38.3004 22.9242 38.8909 23.1419L43.4396 24.819L45.0392 20.4805C45.2717 19.85 45.7032 19.651 46.3337 19.8835C46.9642 20.1159 47.1632 20.5474 46.9307 21.1779L46.6097 22.0486L50.2876 23.4047C50.8581 23.6151 51.0382 24.0055 50.8278 24.5759C50.6138 25.1564 50.2216 25.3415 49.6511 25.1311L45.9732 23.775L45.3311 25.5164L48.3785 26.6401L50.5553 27.4426C51.1458 27.6603 51.3321 28.0644 51.1144 28.6549C50.8967 29.2454 50.4926 29.4318 49.9022 29.2141L44.6779 27.2879L44.1909 28.6089L44.5078 28.3506C44.6569 28.2237 44.7954 28.2179 44.9234 28.3333C46.2686 29.3409 47.4099 30.2847 48.3474 31.1646C48.5833 31.3881 48.6812 31.6004 48.6412 31.8016C48.6085 31.9828 48.4535 32.1872 48.1764 32.4147C47.9129 32.6358 47.6932 32.7538 47.5173 32.7685C47.3139 32.7958 47.1061 32.6965 46.8939 32.4704C46.0038 31.5852 44.97 30.6583 43.7923 29.6898L42.4639 33.2927C42.2314 33.9232 41.8 34.1222 41.1694 33.8897Z" fill="white"/>
</svg>
