<svg width="67" height="63" viewBox="0 0 67 63" fill="none" xmlns="http://www.w3.org/2000/svg">
<rect x="5.29077" y="33.2539" width="54" height="31" rx="15.5" transform="rotate(-21.6622 5.29077 33.2539)" fill="#FF6C00"/>
<path d="M14.9688 13.9878L38.2909 22.8209L27.2909 30.8207L14.9688 13.9878Z" fill="#FF6C00"/>
<path d="M32.7761 48.1684C32.2012 48.3968 31.8015 48.2284 31.577 47.6634L30.9037 45.9682C29.9672 47.4535 28.7973 48.7847 27.394 49.9618C26.9931 50.2817 26.5811 50.3134 26.1578 50.0568C25.784 49.838 25.6073 49.6098 25.6276 49.3722C25.6321 49.1523 25.8209 48.9052 26.194 48.6308C27.3628 47.7304 28.3813 46.7405 29.2496 45.6611L25.5469 47.1317C25.081 47.3168 24.7535 47.1714 24.5645 46.6956C24.3795 46.2296 24.5199 45.9042 24.9858 45.7191L30.0119 43.7228L29.7816 43.1429L26.6886 44.3714C26.4011 44.4856 26.1327 44.4889 25.8834 44.3813C25.6341 44.2737 25.4523 44.0762 25.3381 43.7887L24.1274 40.7404C24.0975 40.8096 24.0676 40.8789 24.0377 40.9481C23.8885 41.237 23.7217 41.4237 23.5372 41.5085C23.333 41.6011 23.0874 41.5896 22.8005 41.474C22.1811 41.215 22.0763 40.7344 22.4861 40.0322C23.0733 38.8234 23.4655 37.6002 23.6626 36.3628C23.6851 36.1013 23.7737 35.9055 23.9285 35.7751C24.0635 35.6526 24.2697 35.565 24.5471 35.5122C25.322 35.3536 25.6421 35.6684 25.5075 36.4564C25.5034 36.5039 25.4923 36.5772 25.4743 36.6762C25.4523 36.7652 25.4343 36.8355 25.4203 36.887L27.5021 36.0601C27.5204 35.8462 27.538 35.5294 27.5549 35.1095C27.5306 34.4993 27.8099 34.1187 28.3926 33.9676C28.8187 33.8558 29.1058 33.8852 29.254 34.0559C29.4081 34.2127 29.4539 34.5159 29.3914 34.9654C29.3672 35.1357 29.3471 35.2584 29.3311 35.3337L33.0486 33.8571C33.5046 33.676 33.8232 33.8134 34.0043 34.2695C34.1854 34.7255 34.048 35.044 33.592 35.2252L29.6514 36.7903L29.8936 37.4L33.2244 36.077C33.6111 35.9234 33.8812 36.04 34.0347 36.4266C34.1883 36.8132 34.0717 37.0833 33.6851 37.2368L30.3542 38.5598L30.6023 39.1844L33.9481 37.8555C34.3347 37.7019 34.6048 37.8185 34.7583 38.2051C34.9119 38.5917 34.7954 38.8618 34.4087 39.0153L31.063 40.3442L31.3169 40.9836L35.7036 39.2413C36.1497 39.0641 36.4613 39.1986 36.6385 39.6447C36.8157 40.0908 36.6813 40.4024 36.2352 40.5796L31.4916 42.4637L31.722 43.0436L34.6216 41.8919L36.8224 41.0178C37.2883 40.8328 37.6138 40.9732 37.7989 41.4391C37.9878 41.915 37.8494 42.2454 37.3835 42.4305L33.7106 43.8893C35.0253 44.0787 36.392 44.1097 37.8105 43.9824C38.2603 43.93 38.5701 43.9734 38.7401 44.1124C38.9141 44.2614 38.9401 44.5437 38.8183 44.9594C38.6864 45.4365 38.358 45.6932 37.833 45.7295C36.0243 45.8281 34.2767 45.6615 32.5902 45.2295L33.2871 46.9842C33.5115 47.5492 33.3412 47.944 32.7761 48.1684ZM27.1236 42.6492L29.6366 41.651L29.3827 41.0116L27.9849 41.5668L26.602 42.1161L26.7496 42.4878C26.8205 42.6663 26.9452 42.72 27.1236 42.6492ZM26.1413 40.9562L27.5242 40.4069L28.922 39.8518L28.6739 39.2272L25.8932 40.3317L26.1413 40.9562ZM25.4326 39.1718L26.8155 38.6225L28.2132 38.0674L27.9711 37.4577L25.1904 38.5621L25.4326 39.1718ZM48.3897 41.967C47.775 42.2111 47.3476 42.0308 47.1074 41.4261L46.8653 40.8164L41.8541 42.8068C41.3882 42.9918 41.0627 42.8514 40.8776 42.3855C40.6926 41.9195 40.833 41.5941 41.2989 41.409L46.3101 39.4186L46.0502 38.7643L42.8681 40.0283C42.5806 40.1424 42.3122 40.1458 42.0629 40.0382C41.8135 39.9306 41.6318 39.7331 41.5176 39.4456L40.36 36.5311C40.2458 36.2436 40.2425 35.9752 40.3501 35.7259C40.4576 35.4766 40.6552 35.2948 40.9427 35.1806L45.0765 33.5387L49.2253 31.8909C49.5127 31.7767 49.7811 31.7734 50.0305 31.881C50.2798 31.9885 50.4615 32.1861 50.5757 32.4736L51.7333 35.3881C51.8475 35.6756 51.8508 35.944 51.7432 36.1933C51.6357 36.4426 51.4381 36.6244 51.1507 36.7385L47.8793 38.0379L48.1391 38.6922L53.2395 36.6664C53.7055 36.4813 54.031 36.6217 54.216 37.0877C54.4011 37.5536 54.2607 37.8791 53.7947 38.0641L48.6943 40.0899L48.9365 40.6996C49.1766 41.3043 48.9944 41.7268 48.3897 41.967ZM43.4216 38.4311L49.5034 36.0155C49.7414 35.921 49.8131 35.7548 49.7186 35.5169L49.5886 35.1898L46.2131 36.5304L42.8525 37.8652L43.0061 38.2519C43.0848 38.4501 43.2233 38.5099 43.4216 38.4311ZM42.4155 36.7649L49.1516 34.0894L48.9921 33.6879C48.9094 33.4797 48.764 33.417 48.5558 33.4996L45.4926 34.7163L42.4888 35.9093C42.2509 36.0038 42.1792 36.17 42.2737 36.408L42.4155 36.7649ZM38.9012 35.2856C38.4452 35.4667 38.1247 35.3243 37.9396 34.8584C37.7585 34.4024 37.8959 34.0838 38.352 33.9027L40.9691 32.8632C40.8605 32.7342 40.6807 32.5416 40.4297 32.2855C40.3902 32.2438 40.3616 32.215 40.3438 32.1991C40.1975 32.0621 40.2127 31.9413 40.3892 31.8368L40.4279 31.8042L38.8369 32.4361C38.3808 32.6172 38.0603 32.4748 37.8752 32.0089C37.6941 31.5529 37.8316 31.2343 38.2876 31.0532L42.3471 29.4408L42.3176 29.3665C42.0774 28.7618 42.2646 28.3374 42.8792 28.0932C43.4839 27.8531 43.9064 28.0353 44.1466 28.64L44.1761 28.7144L48.3695 27.0489C48.8255 26.8677 49.144 27.0052 49.3252 27.4612C49.5102 27.9271 49.3747 28.2506 48.9187 28.4318L47.6548 28.9338L47.7499 28.9132C47.7358 29.0221 47.7225 29.1766 47.7101 29.3766C47.6716 29.7707 47.6402 30.0529 47.616 30.2232L50.2182 29.1896C50.6743 29.0085 50.9928 29.1459 51.1739 29.6019C51.359 30.0679 51.2235 30.3914 50.7675 30.5725L44.8344 32.9291L38.9012 35.2856ZM42.8427 32.119L45.7721 30.9555C45.7702 30.9218 45.7723 30.8694 45.7784 30.7981C45.7935 30.2871 45.7994 29.9117 45.796 29.6721L43.848 30.4458L41.9149 31.2136C42.2847 31.4799 42.594 31.7817 42.8427 32.119Z" fill="white"/>
</svg>
