<svg width="225" height="90" viewBox="0 0 225 90" fill="none" xmlns="http://www.w3.org/2000/svg">
<path d="M28.0188 51.4914C25.1825 50.9879 23.6016 49.6755 23.2763 47.5542C22.8072 44.3596 24.5712 43.212 28.5684 44.1114C28.9449 44.1869 29.3058 44.2592 29.6509 44.3284C30.498 44.4983 30.9971 44.2067 31.1481 43.4537L36.3193 17.663L28.7421 16.1437C26.4517 15.6845 25.5361 14.3097 25.9954 12.0193C26.4546 9.72884 27.8294 8.81326 30.1198 9.2725L39.3442 11.1221L48.6157 12.9811C50.9061 13.4403 51.8217 14.8151 51.3625 17.1056C50.9032 19.396 49.5284 20.3115 47.238 19.8523L43.7082 19.1446L38.5087 45.0764C38.1312 46.959 37.6002 48.3864 36.9157 49.3588C36.2249 50.3626 35.2267 51.0273 33.9212 51.353C32.465 51.7791 30.4976 51.8252 28.0188 51.4914ZM6.43567 47.0659C3.96322 46.7007 2.64903 45.5233 2.49311 43.5338C2.37453 42.172 2.62287 41.259 3.23811 40.7949C3.88474 40.337 4.91085 40.2654 6.31646 40.5799C6.88122 40.6931 7.22336 40.4516 7.34289 39.8555L8.94711 31.8547L8.06222 31.8731C5.68994 31.9849 4.44476 30.8704 4.32666 28.5295C4.25197 27.2743 4.46893 26.355 4.97755 25.7716C5.52383 25.1632 6.41513 24.8686 7.65143 24.8881C8.83128 24.8635 9.73185 24.8483 10.3532 24.8423L11.7592 17.8299L9.50016 17.3769C7.36663 16.9491 6.5169 15.6528 6.95098 13.4879C7.37877 11.3544 8.65943 10.5015 10.793 10.9293L13.052 11.3822L14.0995 6.1582C14.5587 3.86779 15.9492 2.95535 18.271 3.42089C20.5614 3.88013 21.477 5.25496 21.0178 7.54537L19.9703 12.7694L21.3822 13.0525C23.5157 13.4803 24.3686 14.7609 23.9408 16.8945C23.5067 19.0594 22.2229 19.928 20.0894 19.5002L18.6775 19.2171L17.5829 24.6764L18.9102 24.6488C21.3075 24.5747 22.4115 25.7425 22.2221 28.1523C22.1018 30.2169 21.003 31.3021 18.9257 31.4078C18.5931 31.439 18.0816 31.467 17.3913 31.4917C16.8641 31.5166 16.4687 31.5352 16.2051 31.5476L15.2237 36.4422L14.2518 41.2897C13.9246 42.9213 13.5004 44.1417 12.9791 44.951C12.4453 45.8231 11.6731 46.4189 10.6625 46.7385C9.53898 47.1333 8.13003 47.2424 6.43567 47.0659ZM67.7212 59.7947C65.3053 59.3103 64.3364 57.8758 64.8146 55.4913L68.4382 37.419L55.2134 34.7673C52.9544 34.3143 52.0513 32.9584 52.5043 30.6993C52.9572 28.4403 54.3132 27.5372 56.5723 27.9902L69.7971 30.6419L72.3355 17.9818C72.8136 15.5973 74.2606 14.6472 76.6765 15.1316C79.0611 15.6098 80.0143 17.0411 79.5362 19.4256L79.2153 21.0258L89.8516 23.1584C92.0165 23.5925 92.8819 24.892 92.4479 27.0569C92.0075 29.2532 90.7049 30.1343 88.5399 29.7002L77.9036 27.5676L76.9977 32.0857L86.4575 33.9824L92.5757 35.2091C94.8347 35.6621 95.7378 37.0181 95.2848 39.2771C94.8318 41.5362 93.4759 42.4392 91.2168 41.9863L75.6389 38.8628L74.8745 42.6749L75.8729 41.6022C76.4003 41.0879 76.962 40.972 77.5581 41.2547C81.1782 43.2208 84.6414 45.3186 87.9476 47.5481C88.9514 48.2389 89.4562 48.9766 89.4621 49.761C89.4555 50.4451 89.0095 51.2858 88.1241 52.2832C87.2827 53.2242 86.5513 53.7792 85.93 53.9483C85.1831 54.0923 84.358 53.8126 83.4546 53.1093C80.8762 51.1563 77.7425 49.043 74.0535 46.7694L72.0152 56.9351C71.5371 59.3196 70.1058 60.2728 67.7212 59.7947ZM130.043 71.9969C127.093 71.4055 124.929 69.095 123.551 65.0653C122.075 66.075 120.54 66.9748 118.946 67.7648C117.766 68.2788 116.774 68.4226 115.971 68.1963C115.13 67.9951 114.409 67.3609 113.807 66.2937C113.054 65.0006 112.879 63.9211 113.281 63.0552C113.646 62.2144 114.569 61.5183 116.05 60.9667C118.216 59.9323 120.206 58.7158 122.02 57.3172C121.564 52.1018 121.768 45.7133 122.632 38.1514L110.537 35.7262L109.64 40.1973L117.97 41.8675C118.974 42.0688 119.636 42.5932 119.956 43.4406C120.307 44.4574 120.265 45.9667 119.831 47.9684C118.932 51.9656 118.212 54.8239 117.671 56.5431C117.087 58.3189 116.496 59.4733 115.9 60.0065C114.864 60.9411 113.561 61.4142 111.992 61.426C111.503 61.4258 110.656 61.3375 109.451 61.1612C108.535 61.0101 107.838 60.6584 107.362 60.1059C106.885 59.5534 106.663 58.8723 106.694 58.0628C106.67 56.5566 106.479 55.2292 106.122 54.0806C104.796 57.9269 103.313 61.0892 101.674 63.5673C100.751 64.7529 99.8941 65.3644 99.1034 65.4017C98.3126 65.4389 97.4437 64.8894 96.4966 63.753C95.6562 62.7359 95.2456 61.7724 95.2648 60.8625C95.3155 59.9588 95.7427 58.9674 96.5465 57.8884C98.6443 54.4252 100.429 49.0227 101.901 41.6808L104.119 30.621C104.301 29.7111 104.732 29.0304 105.41 28.5788C106.088 28.1273 106.882 27.9928 107.791 28.1752L114.145 29.4492L123.558 31.3365C123.759 30.0061 123.926 29.0115 124.058 28.3526C124.498 25.9932 125.911 25.0525 128.296 25.5306C130.649 26.0024 131.589 27.4149 131.118 29.7681C131.055 30.0818 130.957 30.5682 130.825 31.227C130.724 31.8922 130.639 32.3974 130.57 32.7425L135.841 33.7994C135.791 33.7241 135.7 33.6079 135.568 33.451C134.954 32.7729 134.499 32.2737 134.204 31.9535C132.623 30.3964 132.794 28.9782 134.715 27.6989C136.071 26.7958 137.348 26.8561 138.546 27.8796C139.612 28.9093 140.497 29.7884 141.199 30.5167C141.726 31.1445 141.93 31.8381 141.81 32.5974C141.697 33.3253 141.26 33.9558 140.501 34.4889L140.218 34.677L141.818 34.9978C144.046 35.4445 144.936 36.7817 144.49 39.0093C144.037 41.2684 142.696 42.1746 140.469 41.7279L129.597 39.5481C129.156 43.5392 128.934 47.248 128.933 50.6746C130.314 48.9934 131.523 47.2775 132.56 45.5271C133.728 43.4441 135.375 42.877 137.502 43.8257C139.742 44.8623 140.193 46.5193 138.856 48.7967C136.004 53.2511 132.905 57.0683 129.559 60.2485C130.028 63.2799 130.843 64.912 132.004 65.1447C132.38 65.2202 132.748 64.9349 133.106 64.2886C133.728 62.3246 134.454 60.9851 135.282 60.2701C136.281 59.3606 137.35 59.4772 138.492 60.62C139.113 61.2667 139.379 62.2992 139.291 63.7174C139.221 64.8784 138.957 66.033 138.498 67.1812C137.418 69.4776 136.187 70.9769 134.806 71.6791C133.607 72.2873 132.019 72.3932 130.043 71.9969ZM109.511 54.76C110.138 54.8858 110.65 54.7762 111.045 54.4313C111.485 54.0298 112.019 52.3419 112.648 49.3676C112.837 48.5895 112.868 48.0247 112.743 47.6732C112.636 47.3907 112.379 47.2086 111.971 47.1268L108.338 46.4472L108.319 46.5414C107.942 48.0976 107.624 49.2741 107.367 50.071L107.338 50.2122C106.879 51.8499 106.502 53.0798 106.207 53.9018C107.405 54.2726 108.507 54.5587 109.511 54.76ZM162.489 76.4465C159.997 77.6439 158.187 77.232 157.058 75.2107C156.343 73.8924 156.243 72.7627 156.758 71.8216C157.223 70.9684 158.212 70.1875 159.725 69.4791C162.7 67.6606 165.13 65.1452 167.015 61.933C168.616 59.1536 170.008 55.4673 171.19 50.8741L168.931 50.4211C166.766 49.987 165.904 48.6718 166.344 46.4756C166.778 44.3106 168.078 43.4452 170.243 43.8793L172.69 44.37C172.948 43.2468 173.319 41.4772 173.804 39.0613C174.275 36.7081 175.672 35.7643 177.994 36.2299C180.284 36.6891 181.194 38.0953 180.722 40.4485C180.602 41.0446 180.407 41.9357 180.137 43.1216C179.904 44.2825 179.712 45.1579 179.561 45.7477L185.115 46.8613L188.033 47.4463C188.911 47.6225 189.47 48.0934 189.708 48.8592C189.983 49.763 189.907 51.2001 189.48 53.1705C187.429 62.2567 185.895 68.5254 184.877 71.9766C183.814 75.6473 182.803 77.9249 181.842 78.8093C181.032 79.5934 180.238 80.1359 179.46 80.4367C178.757 80.6874 177.884 80.8062 176.843 80.7932C175.864 80.7927 174.715 80.6603 173.397 80.3961C172.362 80.1885 171.565 79.7676 171.007 79.1335C170.48 78.5057 170.226 77.7368 170.246 76.8268C170.258 76.7641 170.249 76.648 170.218 76.4785C170.218 76.3153 170.211 76.1835 170.199 76.0831C169.961 74.991 170.099 74.2192 170.614 73.7676C171.129 73.316 171.992 73.2442 173.203 73.5523C173.736 73.6593 174.254 73.7631 174.756 73.8637C175.509 74.0147 176.162 73.8519 176.714 73.3752C177.305 72.8734 178.008 71.2358 178.825 68.4623C179.617 65.8144 180.708 61.4313 182.098 55.3132C182.3 54.4723 182.338 53.8762 182.212 53.5247C182.112 53.2108 181.858 53.013 181.45 52.9312L178.014 52.2424C176.411 58.2851 174.529 63.1133 172.369 66.7271C169.819 70.9808 166.525 74.2206 162.489 76.4465ZM147.178 66.8654C145.885 66.9652 144.95 66.7451 144.373 66.2051C143.833 65.64 143.561 64.7205 143.555 63.4465C143.556 62.1412 143.829 61.1843 144.376 60.5758C144.96 59.9422 145.889 59.6226 147.162 59.617C147.326 59.617 147.605 59.6078 148 59.5891C148.885 59.5707 149.557 59.5585 150.015 59.5524L153.487 42.2332L151.134 41.7613C149.001 41.3335 148.151 40.0372 148.585 37.8723C149.013 35.7388 150.294 34.8859 152.427 35.3137L158.122 36.4555L163.863 37.6068C165.997 38.0345 166.85 39.3152 166.422 41.4487C165.988 43.6136 164.704 44.4822 162.571 44.0544L160.218 43.5826L157.075 59.2547C157.339 59.2422 157.734 59.2236 158.261 59.1988C158.92 59.1677 159.4 59.1334 159.702 59.0959C162.049 58.9464 163.159 60.0829 163.032 62.5053C162.918 64.5385 161.864 65.6488 159.868 65.8361C156.611 66.1295 152.381 66.4726 147.178 66.8654ZM210.767 84.4622C209.167 84.1413 207.931 83.3877 207.059 82.2011C206.219 81.0209 205.95 79.6777 206.252 78.1717C206.548 76.6971 207.311 75.5772 208.541 74.8122C209.809 74.0221 211.243 73.7874 212.843 74.1083C214.443 74.4291 215.661 75.1953 216.495 76.407C217.366 77.5935 217.651 78.9398 217.349 80.4458C217.054 81.9205 216.291 83.0403 215.06 83.8053C213.83 84.5704 212.399 84.7893 210.767 84.4622ZM213.438 71.388C211.492 70.998 210.574 69.8836 210.681 68.0449L211.525 55.5346L212.28 50.7906C212.438 49.843 212.84 49.1403 213.486 48.6825C214.164 48.231 214.974 48.0996 215.915 48.2883L217.939 48.6941L220.669 49.2414C221.422 49.3924 221.958 49.7284 222.278 50.2495C222.629 50.7768 222.714 51.4138 222.531 52.1605L221.267 57.488L217.223 69.3565C216.645 71.1009 215.383 71.7781 213.438 71.388Z" fill="#357C38"/>
</svg>
