<svg width="225" height="89" viewBox="0 0 225 89" fill="none" xmlns="http://www.w3.org/2000/svg">
<path d="M27.7558 50.61C24.9194 50.1066 23.3386 48.7942 23.0133 46.6728C22.5442 43.4782 24.3082 42.3306 28.3054 43.23C28.6819 43.3055 29.0427 43.3779 29.3878 43.4471C30.235 43.6169 30.7341 43.3253 30.885 42.5723L36.0563 16.7817L28.4791 15.2624C26.1887 14.8031 25.2731 13.4283 25.7323 11.1379C26.1916 8.84747 27.5664 7.93189 29.8568 8.39114L39.0812 10.2407L48.3527 12.0997C50.6431 12.5589 51.5587 13.9338 51.0994 16.2242C50.6402 18.5146 49.2654 19.4302 46.9749 18.9709L43.4452 18.2632L38.2457 44.1951C37.8682 46.0776 37.3372 47.5051 36.6527 48.4775C35.9619 49.4812 34.9637 50.146 33.6582 50.4717C32.202 50.8977 30.2346 50.9438 27.7558 50.61ZM6.17263 46.1845C3.70018 45.8193 2.38599 44.642 2.23007 42.6525C2.1115 41.2906 2.35983 40.3776 2.97508 39.9135C3.6217 39.4557 4.64782 39.384 6.05342 39.6985C6.61818 39.8117 6.96033 39.5703 7.07986 38.9741L8.68407 30.9734L7.79919 30.9918C5.42691 31.1036 4.18172 29.989 4.06363 27.6481C3.98893 26.393 4.20589 25.4737 4.71451 24.8903C5.2608 24.2818 6.15209 23.9873 7.3884 24.0067C8.56824 23.9822 9.46882 23.9669 10.0901 23.961L11.4962 16.9485L9.23713 16.4956C7.10359 16.0678 6.25386 14.7714 6.68794 12.6065C7.11573 10.473 8.3964 9.62012 10.5299 10.0479L12.789 10.5009L13.8364 5.27683C14.2957 2.98642 15.6862 2.07399 18.008 2.53952C20.2984 2.99877 21.214 4.3736 20.7547 6.66401L19.7073 11.888L21.1192 12.1711C23.2527 12.5989 24.1056 13.8796 23.6778 16.0131C23.2437 18.178 21.9599 19.0466 19.8264 18.6188L18.4145 18.3357L17.3198 23.795L18.6472 23.7674C21.0445 23.6933 22.1485 24.8611 21.959 27.2709C21.8388 29.3356 20.74 30.4207 18.6627 30.5264C18.3301 30.5576 17.8186 30.5856 17.1282 30.6104C16.6011 30.6352 16.2057 30.6539 15.9421 30.6663L14.9607 35.5609L13.9887 40.4084C13.6616 42.0399 13.2374 43.2603 12.7161 44.0696C12.1822 44.9417 11.41 45.5375 10.3995 45.8571C9.27594 46.2519 7.86699 46.361 6.17263 46.1845ZM67.4582 58.9133C65.0423 58.4289 64.0734 56.9944 64.5515 54.6099L68.1752 36.5376L54.9504 33.8859C52.6913 33.433 51.7883 32.077 52.2412 29.8179C52.6942 27.5589 54.0502 26.6559 56.3092 27.1088L69.534 29.7605L72.0724 17.1005C72.5506 14.7159 73.9976 13.7659 76.4135 14.2503C78.798 14.7284 79.7512 16.1597 79.2731 18.5443L78.9523 20.1444L89.5886 22.2771C91.7535 22.7112 92.6189 24.0107 92.1848 26.1756C91.7445 28.3718 90.4418 29.253 88.2769 28.8189L77.6406 26.6862L76.7347 31.2043L86.1944 33.101L92.3126 34.3278C94.5717 34.7807 95.4747 36.1367 95.0218 38.3958C94.5688 40.6548 93.2128 41.5578 90.9538 41.1049L75.3758 37.9814L74.6115 41.7935L75.6098 40.7209C76.1372 40.2065 76.699 40.0907 77.295 40.3734C80.9152 42.3394 84.3783 44.4372 87.6846 46.6667C88.6883 47.3575 89.1932 48.0952 89.1991 48.8797C89.1924 49.5637 88.7465 50.4044 87.8611 51.4018C87.0197 52.3428 86.2883 52.8978 85.6669 53.067C84.92 53.2109 84.0949 52.9313 83.1916 52.228C80.6132 50.2749 77.4795 48.1616 73.7905 45.888L71.7522 56.0537C71.2741 58.4382 69.8428 59.3914 67.4582 58.9133ZM136.049 70.1207C134.555 71.5509 132.635 71.6064 130.288 70.2874C124.554 66.6572 120.644 61.5814 118.557 55.0599C114.752 59.8778 109.271 62.9565 102.116 64.296C99.1729 64.6523 97.278 63.9296 96.4316 62.1281C95.7734 60.6906 95.9591 59.5203 96.9887 58.6171C97.8301 57.8393 99.1922 57.3128 101.075 57.0376C106.228 55.7536 110.161 53.3927 112.874 49.9549L101.343 47.643C99.0528 47.1837 98.1403 45.7932 98.6059 43.4714C99.0651 41.181 100.44 40.2654 102.73 40.7247L116.379 43.4613C116.925 41.8738 117.384 40.1545 117.756 38.3033L117.992 37.1267L109.85 35.4942C109.115 36.3913 108.478 37.1284 107.938 37.7055C107.04 38.6025 106.177 39.0821 105.348 39.1445C104.551 39.2131 103.679 38.8424 102.732 38.0324C101.59 37.0528 101.007 36.1363 100.982 35.2828C100.989 34.4356 101.551 33.5039 102.668 32.4878C104.621 30.3989 106.411 27.9021 108.038 24.9972C108.622 23.8741 109.36 23.1245 110.251 22.7484C111.142 22.3723 112.143 22.4262 113.254 22.9099C115.594 23.934 116.18 25.5691 115.012 27.8153C114.918 27.9595 114.776 28.176 114.588 28.4646C114.431 28.7595 114.305 28.9791 114.211 29.1234L119.388 30.1614L120.086 26.6787C120.558 24.3255 121.986 23.388 124.371 23.8661C126.724 24.3379 127.665 25.7504 127.193 28.1036L126.495 31.5863L136.802 33.6529C139.123 34.1184 140.051 35.5121 139.586 37.8339C139.12 40.1557 137.727 41.0838 135.405 40.6183L125.098 38.5517L124.853 39.7753C124.45 41.7833 124.026 43.4933 123.579 44.9051L132.616 46.7169L138.216 47.8398C140.506 48.2991 141.422 49.6739 140.963 51.9643C140.497 54.2861 139.119 55.2174 136.829 54.7581L124.922 52.3707C126.551 56.9402 129.552 60.6914 133.925 63.6243C137.765 65.6344 138.473 67.7999 136.049 70.1207ZM145.433 73.8625C144.793 73.7994 144.109 73.3849 143.381 72.6189C142.441 71.6143 142.036 70.701 142.168 69.879C142.332 69.0632 142.998 68.2665 144.165 67.4889C144.956 66.7989 145.71 66.0525 146.426 65.2496C146.972 64.4779 148.067 64.1427 149.711 64.2439C151.067 64.3199 152.309 64.6343 153.439 65.1871C154.066 65.4761 154.283 65.7805 154.088 66.1005L154.022 66.1852L159.661 64.9171L148.743 62.7278C147.833 62.5454 147.152 62.1152 146.7 61.4372C146.249 60.7592 146.114 59.9652 146.297 59.0554L151.251 34.3471C151.433 33.4372 151.864 32.7565 152.542 32.305C153.22 31.8535 154.014 31.719 154.924 31.9014L160.806 33.081L166.736 34.27C167.646 34.4524 168.327 34.8826 168.779 35.5606C169.23 36.2386 169.365 37.0326 169.182 37.9425L167.031 48.6729C169.53 45.8124 171.75 42.1453 173.691 37.6717C174.634 35.2497 176.275 34.4692 178.616 35.3301C180.893 36.1784 181.561 37.732 180.619 39.9908C180.267 40.7688 179.714 41.8982 178.96 43.3789L188.891 45.37C191.024 45.7978 191.871 47.1098 191.43 49.3061C191.009 51.4083 189.778 52.2549 187.739 51.846L187.645 51.8271C185.225 58.3589 182.424 63.6229 179.24 67.619C180.218 69.5775 181.444 71.3572 182.918 72.9583C184.223 74.1011 184.941 75.1589 185.072 76.1317C185.185 77.1986 184.629 78.2621 183.405 79.3221C182.457 80.1437 181.521 80.4947 180.599 80.375C179.739 80.2679 178.814 79.756 177.823 78.8393C176.229 77.1817 174.856 75.2418 173.702 73.0197C171.442 74.6879 168.878 76.083 166.009 77.2049C164.999 77.5245 164.123 77.4958 163.383 77.1189C162.668 76.7797 162.172 76.1582 161.897 75.2543C161.853 75.1476 161.774 74.9687 161.662 74.7176C161.58 74.4728 161.521 74.2814 161.483 74.1433L159.252 74.7729C158.668 74.917 158.172 74.8665 157.764 74.6216C157.35 74.408 157.09 74.0784 156.984 73.6328C156.194 70.8962 155.191 68.4105 153.975 66.1758C152.367 68.6602 150.292 70.9529 147.749 73.0541C146.876 73.6624 146.104 73.9319 145.433 73.8625ZM162.577 70.3972C165.778 69.4072 168.574 67.9119 170.966 65.9111C170.24 63.0239 169.733 59.936 169.446 56.6474C169.402 56.7038 169.32 56.7854 169.201 56.892C168.919 57.1617 168.702 57.3467 168.551 57.4471C168.08 57.8422 167.707 57.8326 167.431 57.4183C166.867 56.6524 166.296 55.9178 165.719 55.2147L164.662 60.4858L164.105 63.2625C163.954 64.0155 163.615 64.5676 163.088 64.9188C162.56 65.27 161.92 65.3701 161.167 65.2191L159.991 64.9832C161.138 66.9104 162 68.7151 162.577 70.3972ZM154.242 58.2497L155.56 58.5139L156.972 58.797C157.694 58.9417 158.127 58.6532 158.271 57.9316L158.743 55.5784L153.802 54.5876L153.339 56.8937C153.188 57.6467 153.489 58.0987 154.242 58.2497ZM176.533 59.1454C177.946 56.8178 179.266 53.9003 180.491 50.3927L175.691 49.4302C175.696 51.1937 175.755 52.8536 175.867 54.4101C176.011 55.9728 176.233 57.5512 176.533 59.1454ZM154.792 49.6459L157.24 50.1366L159.734 50.6368L160.414 47.2482L155.472 46.2574L154.792 49.6459ZM156.472 41.2687L158.919 41.7594L161.414 42.2595L161.857 40.0475C162.008 39.2945 161.707 38.8425 160.954 38.6915L158.272 38.1536C157.519 38.0027 157.067 38.3037 156.916 39.0567L156.472 41.2687ZM210.504 83.5808C208.904 83.26 207.668 82.5063 206.796 81.3198C205.956 80.1395 205.687 78.7964 205.989 77.2903C206.285 75.8157 207.048 74.6959 208.278 73.9308C209.546 73.1407 210.98 72.9061 212.58 73.2269C214.18 73.5477 215.398 74.314 216.232 75.5256C217.103 76.7121 217.388 78.0584 217.086 79.5644C216.791 81.0391 216.028 82.1589 214.797 82.924C213.567 83.689 212.136 83.908 210.504 83.5808ZM213.175 70.5067C211.229 70.1166 210.311 69.0022 210.418 67.1635L211.262 54.6533L212.017 49.9092C212.175 48.9616 212.577 48.259 213.223 47.8011C213.901 47.3496 214.711 47.2182 215.652 47.407L217.676 47.8127L220.406 48.3601C221.159 48.511 221.695 48.8471 222.015 49.3681C222.366 49.8954 222.451 50.5325 222.268 51.2792L221.004 56.6066L216.96 68.4752C216.382 70.2196 215.12 70.8967 213.175 70.5067Z" fill="#4A4A4A"/>
</svg>
