<svg width="48" height="48" viewBox="0 0 48 48" fill="none" xmlns="http://www.w3.org/2000/svg">
<g filter="url(#filter0_d_216_269)">
<circle cx="24" cy="20" r="20" fill="#FFCE00"/>
</g>
<path d="M32.8889 18.0146C32.8889 13.0352 28.8808 9 23.9444 9C19.0037 9 15 13.0352 15 18.0146C15 20.2311 15.7981 22.2596 17.1125 23.8291L22.7385 31.3967C23.3415 32.2055 24.5431 32.2055 25.1417 31.3967L30.7677 23.8291C32.0907 22.2553 32.8889 20.2311 32.8889 18.0146ZM23.9444 14.7358C25.7403 14.7358 27.1978 16.2047 27.1978 18.0146C27.1978 19.8246 25.7403 21.2935 23.9444 21.2935C22.1486 21.2935 20.6911 19.8246 20.6911 18.0146C20.6911 16.2047 22.1486 14.7358 23.9444 14.7358Z" fill="white"/>
<defs>
<filter id="filter0_d_216_269" x="0" y="0" width="48" height="48" filterUnits="userSpaceOnUse" color-interpolation-filters="sRGB">
<feFlood flood-opacity="0" result="BackgroundImageFix"/>
<feColorMatrix in="SourceAlpha" type="matrix" values="0 0 0 0 0 0 0 0 0 0 0 0 0 0 0 0 0 0 127 0" result="hardAlpha"/>
<feOffset dy="4"/>
<feGaussianBlur stdDeviation="2"/>
<feComposite in2="hardAlpha" operator="out"/>
<feColorMatrix type="matrix" values="0 0 0 0 0 0 0 0 0 0 0 0 0 0 0 0 0 0 0.25 0"/>
<feBlend mode="normal" in2="BackgroundImageFix" result="effect1_dropShadow_216_269"/>
<feBlend mode="normal" in="SourceGraphic" in2="effect1_dropShadow_216_269" result="shape"/>
</filter>
</defs>
</svg>
