<svg width="53" height="68" viewBox="0 0 53 68" fill="none" xmlns="http://www.w3.org/2000/svg">
<circle cx="26.5" cy="41.5" r="26.5" fill="white"/>
<path d="M15.1971 11.168C14.2451 11.168 13.3651 10.9 12.5571 10.364C12.1571 10.036 12.1211 9.676 12.4491 9.284C12.8011 8.86 13.2091 8.82 13.6731 9.164C14.2091 9.476 14.7291 9.632 15.2331 9.632C15.6891 9.632 16.0371 9.544 16.2771 9.368C16.5251 9.184 16.6491 8.932 16.6491 8.612C16.6491 8.324 16.5331 8.088 16.3011 7.904C16.1571 7.792 15.8571 7.64 15.4011 7.448C15.3611 7.432 15.3331 7.42 15.3171 7.412L14.1291 6.908C12.9291 6.412 12.3291 5.616 12.3291 4.52C12.3291 3.784 12.6171 3.172 13.1931 2.684C13.7691 2.196 14.5051 1.952 15.4011 1.952C16.2411 1.952 17.0011 2.188 17.6811 2.66C18.0171 2.948 18.0411 3.268 17.7531 3.62C17.4331 4.012 17.0731 4.068 16.6731 3.788C16.2811 3.58 15.8571 3.476 15.4011 3.476C15.0091 3.476 14.6971 3.56 14.4651 3.728C14.2331 3.896 14.1171 4.124 14.1171 4.412C14.1171 4.684 14.2451 4.912 14.5011 5.096C14.6611 5.216 14.9691 5.364 15.4251 5.54C15.4651 5.556 15.4931 5.568 15.5091 5.576L16.6731 6.068C17.2491 6.308 17.6811 6.604 17.9691 6.956C18.2971 7.364 18.4611 7.872 18.4611 8.48C18.4611 9.232 18.1731 9.86 17.5971 10.364C16.9971 10.9 16.1971 11.168 15.1971 11.168ZM22.4042 11C21.8122 11 21.5162 10.704 21.5162 10.112V3.596H19.7522C19.2642 3.596 19.0202 3.348 19.0202 2.852C19.0202 2.364 19.2642 2.12 19.7522 2.12H22.4162H25.0802C25.5682 2.12 25.8122 2.364 25.8122 2.852C25.8122 3.348 25.5682 3.596 25.0802 3.596H23.2922V10.112C23.2922 10.704 22.9962 11 22.4042 11ZM28.0322 11C27.8002 11 27.6122 10.928 27.4682 10.784C27.3242 10.64 27.2522 10.452 27.2522 10.22V2.9C27.2522 2.668 27.3242 2.48 27.4682 2.336C27.6122 2.192 27.8002 2.12 28.0322 2.12H31.9682C32.4562 2.12 32.7002 2.364 32.7002 2.852C32.7002 3.348 32.4562 3.596 31.9682 3.596H29.0282V5.648H31.4042C31.9002 5.648 32.1482 5.896 32.1482 6.392C32.1482 6.888 31.9002 7.136 31.4042 7.136H29.0282V9.512H32.0882C32.5842 9.512 32.8322 9.76 32.8322 10.256C32.8322 10.752 32.5842 11 32.0882 11H30.0362H28.0322ZM35.523 11C34.931 11 34.635 10.704 34.635 10.112V2.9C34.635 2.668 34.707 2.48 34.851 2.336C34.995 2.192 35.183 2.12 35.415 2.12H36.087H37.551C39.871 2.12 41.031 3.048 41.031 4.904C41.031 5.872 40.699 6.616 40.035 7.136C39.427 7.608 38.615 7.844 37.599 7.844H36.411V10.112C36.411 10.704 36.115 11 35.523 11ZM36.411 6.44H37.479C38.687 6.44 39.291 5.928 39.291 4.904C39.291 4.408 39.131 4.048 38.811 3.824C38.515 3.624 38.051 3.524 37.419 3.524H36.411V4.988V6.44Z" fill="white"/>
<path d="M17.4691 59C16.6291 59 15.9541 58.745 15.4441 58.235C14.9341 57.725 14.6791 57.05 14.6791 56.21V56.075C14.6791 54.965 15.2641 53.87 16.4341 52.79C20.4841 49.04 23.4541 45.92 25.3441 43.43C27.5641 40.49 28.6741 37.97 28.6741 35.87C28.6741 34.37 28.2841 33.215 27.5041 32.405C26.7241 31.565 25.6591 31.145 24.3091 31.145C23.2291 31.145 22.1491 31.49 21.0691 32.18C19.4491 33.65 17.9041 33.65 16.4341 32.18C15.7141 31.46 15.3841 30.725 15.4441 29.975C15.5341 29.225 15.9541 28.505 16.7041 27.815C19.1941 25.865 22.0891 24.89 25.3891 24.89C28.6591 24.89 31.2991 25.85 33.3091 27.77C35.3491 29.69 36.3691 32.24 36.3691 35.42C36.3691 40.16 33.0091 45.92 26.2891 52.7C28.5091 52.4 30.3241 52.25 31.7341 52.25H34.5241C36.7741 52.25 37.8991 53.375 37.8991 55.625C37.8991 57.875 36.7741 59 34.5241 59H26.2891H17.4691Z" fill="#FF6C00"/>
</svg>
